<svg width="26" height="26" viewBox="0 0 26 26" fill="none" xmlns="http://www.w3.org/2000/svg">
<path d="M13.1251 25.0385C17.5967 25.0385 21.2217 21.5234 21.2217 17.1872C21.2217 12.8511 17.5967 9.33594 13.1251 9.33594C8.65343 9.33594 5.02843 12.8511 5.02843 17.1872C5.02843 21.5234 8.65343 25.0385 13.1251 25.0385Z" stroke="white" stroke-width="1.5" stroke-linecap="round" stroke-linejoin="round"/>
<path d="M19.6022 0.961304L16.5125 7.25281" stroke="white" stroke-width="1.5" stroke-linecap="round" stroke-linejoin="round"/>
<path d="M18.7368 8.25778L22.3015 0.961304" stroke="white" stroke-width="1.5" stroke-linecap="round" stroke-linejoin="round"/>
<path d="M22.3015 0.961304L18.7368 8.25778" stroke="white" stroke-width="1.5" stroke-linecap="round" stroke-linejoin="round"/>
<path d="M20.6689 9.70765L25.0001 0.961304" stroke="white" stroke-width="1.5" stroke-linecap="round" stroke-linejoin="round"/>
<path d="M6.64777 0.961304L9.73745 7.25281" stroke="white" stroke-width="1.5" stroke-linecap="round" stroke-linejoin="round"/>
<path d="M7.51249 8.25778L3.94888 0.961304" stroke="white" stroke-width="1.5" stroke-linecap="round" stroke-linejoin="round"/>
<path d="M3.94888 0.961304L7.51249 8.25778" stroke="white" stroke-width="1.5" stroke-linecap="round" stroke-linejoin="round"/>
<path d="M5.57901 9.70765L1.25 0.961304" stroke="white" stroke-width="1.5" stroke-linecap="round" stroke-linejoin="round"/>
<path d="M13.6345 13.3004L14.7443 15.6171H16.9034C17.0122 15.6129 17.1198 15.6414 17.2113 15.6987C17.3029 15.7559 17.3739 15.8393 17.4148 15.9372C17.4557 16.0351 17.4644 16.1429 17.4397 16.2458C17.415 16.3487 17.3582 16.4417 17.2769 16.5121L15.4028 18.3001L16.4413 20.6126C16.4868 20.7185 16.4969 20.8356 16.4701 20.9473C16.4434 21.0591 16.3812 21.1599 16.2923 21.2356C16.2034 21.3112 16.0923 21.358 15.9745 21.3693C15.8568 21.3805 15.7384 21.3557 15.636 21.2983L13.1249 19.9321L10.6171 21.3004C10.5147 21.3578 10.3963 21.3826 10.2786 21.3713C10.1609 21.3601 10.0497 21.3133 9.96083 21.2376C9.87193 21.162 9.80974 21.0612 9.78301 20.9494C9.75627 20.8377 9.76634 20.7206 9.8118 20.6147L10.8503 18.3022L8.97622 16.5142C8.89375 16.4444 8.83568 16.3515 8.81005 16.2483C8.78442 16.1452 8.7925 16.0368 8.83317 15.9383C8.87384 15.8397 8.94509 15.7559 9.03706 15.6983C9.12902 15.6408 9.23716 15.6124 9.34651 15.6171H11.5056L12.6165 13.2983C12.6647 13.2076 12.7378 13.1316 12.8278 13.0786C12.9177 13.0256 13.0209 12.9977 13.1261 12.9979C13.2314 12.9981 13.3345 13.0265 13.4242 13.0799C13.5139 13.1332 13.5866 13.2095 13.6345 13.3004V13.3004Z" stroke="white" stroke-width="1.5" stroke-linecap="round" stroke-linejoin="round"/>
</svg>
