<svg width="29" height="30" viewBox="0 0 29 30" fill="none" xmlns="http://www.w3.org/2000/svg">
<path d="M11.9335 2.3125C6.01001 3.05522 0.975345 8.04483 0.975345 14.0889C0.975304 15.9552 1.41648 17.7951 2.26287 19.4585C3.10927 21.1219 4.33691 22.5616 5.84563 23.6602V29.0029" stroke="white" stroke-width="1.5" stroke-linecap="round" stroke-linejoin="round"/>
<path d="M24.1088 19.8712V19.2625H26.9214C27.0172 19.2621 27.1117 19.2392 27.197 19.1955C27.2822 19.1518 27.356 19.0885 27.4123 19.0109C27.4685 18.9333 27.5056 18.8435 27.5206 18.7489C27.5356 18.6542 27.528 18.5573 27.4985 18.4662C25.1742 11.2654 23.5012 3.52168 15.5858 2.36499" stroke="white" stroke-width="1.5" stroke-linecap="round" stroke-linejoin="round"/>
<path d="M18.0217 29.0028V26.5677H20.4569C20.8328 26.5678 21.2064 26.5103 21.5649 26.3972" stroke="white" stroke-width="1.5" stroke-linecap="round" stroke-linejoin="round"/>
<path d="M13.151 1H14.3686C15.041 1 15.5862 1.54513 15.5862 2.21757V10.7406C15.5862 11.413 15.041 11.9582 14.3686 11.9582H13.151C12.4786 11.9582 11.9334 11.413 11.9334 10.7406V2.21757C11.9334 1.54513 12.4786 1 13.151 1Z" stroke="white" stroke-width="1.5" stroke-linecap="round" stroke-linejoin="round"/>
<path d="M13.7598 18.046C12.7511 18.046 11.9334 17.2283 11.9334 16.2197C11.9334 15.211 12.7511 14.3933 13.7598 14.3933C14.7685 14.3933 15.5862 15.211 15.5862 16.2197C15.5862 17.2283 14.7685 18.046 13.7598 18.046Z" stroke="white" stroke-width="1.5" stroke-linecap="round" stroke-linejoin="round"/>
<path d="M11.9698 11.0388C10.7449 11.462 9.70973 12.3056 9.04804 13.4198C8.38634 14.534 8.14097 15.8467 8.35552 17.1246C8.57007 18.4026 9.23064 19.5632 10.2199 20.4003C11.2092 21.2373 12.4631 21.6966 13.759 21.6966C15.0549 21.6966 16.3088 21.2373 17.2981 20.4003C18.2873 19.5632 18.9479 18.4026 19.1624 17.1246C19.377 15.8467 19.1316 14.534 18.4699 13.4198C17.8082 12.3056 16.773 11.462 15.5482 11.0388" stroke="white" stroke-width="1.5" stroke-linecap="round" stroke-linejoin="round"/>
<path d="M24.4137 22.3076H25.0225C25.863 22.3076 26.5444 22.989 26.5444 23.8296C26.5444 24.6701 25.863 25.3515 25.0225 25.3515H24.4137C23.5731 25.3515 22.8917 24.6701 22.8917 23.8296C22.8917 22.989 23.5731 22.3076 24.4137 22.3076Z" stroke="white" stroke-width="1.5" stroke-linecap="round" stroke-linejoin="round"/>
<path d="M14.3137 17.9597C16.4116 21.3153 19.9474 23.8296 22.8915 23.8296" stroke="white" stroke-width="1.5" stroke-linecap="round" stroke-linejoin="round"/>
</svg>
