<svg width="27" height="26" viewBox="0 0 27 26" fill="none" xmlns="http://www.w3.org/2000/svg">
<path d="M19.8546 2.83036C18.7478 3.93717 16.6834 3.83181 14.8995 2.04797L13.3348 3.6117L21.6802 11.9571L25.3313 8.306L19.8546 2.83036Z" stroke="white" stroke-width="1.5" stroke-linecap="round" stroke-linejoin="round"/>
<path d="M13.2712 10.8514L9.31441 6.89569C9.66374 6.12307 9.76939 5.26236 9.6173 4.42819C9.46522 3.59402 9.06261 2.82598 8.46309 2.22635C7.86358 1.62672 7.09561 1.22396 6.26147 1.07172C5.42732 0.919476 4.5666 1.02497 3.79391 1.37415L6.03257 3.61177V5.69812H3.94621L1.70755 3.46051C1.35822 4.23313 1.25257 5.09384 1.40466 5.92801C1.55674 6.76218 1.95935 7.53022 2.55887 8.12985C3.15838 8.72948 3.92635 9.13224 4.76049 9.28448C5.59463 9.43672 6.45536 9.33123 7.22805 8.98205L11.1848 12.9378" stroke="white" stroke-width="1.5" stroke-linecap="round" stroke-linejoin="round"/>
<path d="M13.3982 15.1515L17.3549 19.1083C17.0056 19.8809 16.9 20.7416 17.0521 21.5758C17.2041 22.4099 17.6068 23.178 18.2063 23.7776C18.8058 24.3772 19.5737 24.78 20.4079 24.9322C21.242 25.0845 22.1028 24.979 22.8755 24.6298L20.6368 22.3891V20.3027H22.7231L24.9618 22.5424C25.3111 21.7698 25.4168 20.9091 25.2647 20.0749C25.1126 19.2407 24.71 18.4727 24.1105 17.8731C23.511 17.2734 22.743 16.8707 21.9089 16.7184C21.0747 16.5662 20.214 16.6717 19.4413 17.0209L15.4845 13.0641" stroke="white" stroke-width="1.5" stroke-linecap="round" stroke-linejoin="round"/>
<path d="M16.9222 7.20032L1.79615 22.3264C1.5026 22.62 1.33769 23.0181 1.33769 23.4332C1.33769 23.8484 1.5026 24.2465 1.79615 24.54C2.08969 24.8336 2.48783 24.9985 2.90296 24.9985C3.3181 24.9985 3.71623 24.8336 4.00977 24.54L19.1359 9.41394" stroke="white" stroke-width="1.5" stroke-linecap="round" stroke-linejoin="round"/>
</svg>
