
<svg aria-hidden="true" style="position: absolute; width: 0; height: 0; overflow: hidden;" version="1.1" xmlns="http://www.w3.org/2000/svg" xmlns:xlink="http://www.w3.org/1999/xlink">
<defs>
<symbol id="icon-Group-397" viewBox="0 0 33 32">
<path fill="none" stroke="#fff" style="stroke: var(--color1, #fff)" stroke-linejoin="round" stroke-linecap="round" stroke-miterlimit="4" stroke-width="1.8462" d="M24.436 3.484c-1.362 1.362-3.903 1.233-6.099-0.963l-1.926 1.925 10.271 10.271 4.494-4.494-6.741-6.739z"></path>
<path fill="none" stroke="#fff" style="stroke: var(--color1, #fff)" stroke-linejoin="round" stroke-linecap="round" stroke-miterlimit="4" stroke-width="1.8462" d="M16.334 13.356l-4.87-4.869c0.43-0.951 0.56-2.010 0.373-3.037s-0.683-1.972-1.421-2.71c-0.738-0.738-1.683-1.234-2.71-1.421s-2.086-0.058-3.037 0.372l2.755 2.754v2.568h-2.568l-2.755-2.754c-0.43 0.951-0.56 2.010-0.373 3.037s0.683 1.972 1.421 2.71c0.738 0.738 1.683 1.234 2.71 1.421s2.086 0.058 3.037-0.372l4.87 4.869"></path>
<path fill="none" stroke="#fff" style="stroke: var(--color1, #fff)" stroke-linejoin="round" stroke-linecap="round" stroke-miterlimit="4" stroke-width="1.8462" d="M16.49 18.648l4.87 4.87c-0.43 0.951-0.56 2.010-0.373 3.037s0.683 1.972 1.421 2.71 1.683 1.234 2.71 1.421c1.027 0.187 2.086 0.058 3.037-0.372l-2.755-2.758v-2.568h2.568l2.755 2.757c0.43-0.951 0.56-2.010 0.373-3.037s-0.683-1.972-1.421-2.71c-0.738-0.738-1.683-1.234-2.71-1.421s-2.086-0.057-3.037 0.372l-4.87-4.87"></path>
<path fill="none" stroke="#fff" style="stroke: var(--color1, #fff)" stroke-linejoin="round" stroke-linecap="round" stroke-miterlimit="4" stroke-width="1.8462" d="M20.827 8.862l-18.617 18.617c-0.361 0.361-0.564 0.851-0.564 1.362s0.203 1.001 0.564 1.362c0.361 0.361 0.851 0.564 1.362 0.564s1.001-0.203 1.362-0.564l18.617-18.617"></path>
</symbol>
<symbol id="icon-Group-398" viewBox="0 0 32 32">
<path fill="none" stroke="#fff" style="stroke: var(--color1, #fff)" stroke-linejoin="round" stroke-linecap="round" stroke-miterlimit="4" stroke-width="1.8462" d="M16.154 30.817c5.503 0 9.965-4.326 9.965-9.663s-4.462-9.663-9.965-9.663c-5.504 0-9.965 4.326-9.965 9.663s4.462 9.663 9.965 9.663z"></path>
<path fill="none" stroke="#fff" style="stroke: var(--color1, #fff)" stroke-linejoin="round" stroke-linecap="round" stroke-miterlimit="4" stroke-width="1.8462" d="M24.126 1.183l-3.803 7.743"></path>
<path fill="none" stroke="#fff" style="stroke: var(--color1, #fff)" stroke-linejoin="round" stroke-linecap="round" stroke-miterlimit="4" stroke-width="1.8462" d="M23.061 10.163l4.387-8.98"></path>
<path fill="none" stroke="#fff" style="stroke: var(--color1, #fff)" stroke-linejoin="round" stroke-linecap="round" stroke-miterlimit="4" stroke-width="1.8462" d="M27.448 1.183l-4.387 8.98"></path>
<path fill="none" stroke="#fff" style="stroke: var(--color1, #fff)" stroke-linejoin="round" stroke-linecap="round" stroke-miterlimit="4" stroke-width="1.8462" d="M25.439 11.948l5.331-10.765"></path>
<path fill="none" stroke="#fff" style="stroke: var(--color1, #fff)" stroke-linejoin="round" stroke-linecap="round" stroke-miterlimit="4" stroke-width="1.8462" d="M8.182 1.183l3.803 7.743"></path>
<path fill="none" stroke="#fff" style="stroke: var(--color1, #fff)" stroke-linejoin="round" stroke-linecap="round" stroke-miterlimit="4" stroke-width="1.8462" d="M9.246 10.163l-4.386-8.98"></path>
<path fill="none" stroke="#fff" style="stroke: var(--color1, #fff)" stroke-linejoin="round" stroke-linecap="round" stroke-miterlimit="4" stroke-width="1.8462" d="M4.86 1.183l4.386 8.98"></path>
<path fill="none" stroke="#fff" style="stroke: var(--color1, #fff)" stroke-linejoin="round" stroke-linecap="round" stroke-miterlimit="4" stroke-width="1.8462" d="M6.866 11.948l-5.328-10.765"></path>
<path fill="none" stroke="#fff" style="stroke: var(--color1, #fff)" stroke-linejoin="round" stroke-linecap="round" stroke-miterlimit="4" stroke-width="1.8462" d="M16.781 16.37l1.366 2.851h2.657c0.134-0.005 0.266 0.030 0.379 0.1s0.2 0.173 0.25 0.294 0.061 0.253 0.031 0.38c-0.030 0.127-0.1 0.241-0.2 0.328l-2.307 2.201 1.278 2.846c0.056 0.13 0.068 0.274 0.035 0.412s-0.109 0.262-0.219 0.355c-0.109 0.093-0.246 0.151-0.391 0.165s-0.291-0.017-0.417-0.087l-3.091-1.681-3.087 1.684c-0.126 0.071-0.272 0.101-0.417 0.087s-0.282-0.071-0.391-0.165c-0.109-0.093-0.186-0.217-0.219-0.355s-0.021-0.282 0.035-0.412l1.278-2.846-2.307-2.201c-0.101-0.086-0.173-0.2-0.205-0.327s-0.022-0.26 0.028-0.382c0.050-0.121 0.138-0.224 0.251-0.295s0.246-0.106 0.381-0.1h2.657l1.367-2.854c0.059-0.112 0.149-0.205 0.26-0.27s0.238-0.1 0.367-0.099c0.13 0 0.256 0.035 0.367 0.101s0.2 0.16 0.259 0.271v0z"></path>
</symbol>
<symbol id="icon-Group-399" viewBox="0 0 31 32">
<path fill="none" stroke="#fff" style="stroke: var(--color1, #fff)" stroke-linejoin="round" stroke-linecap="round" stroke-miterlimit="4" stroke-width="1.6" d="M12.729 2.467c-6.318 0.792-11.689 6.114-11.689 12.562-0 1.991 0.471 3.953 1.373 5.728s2.212 3.31 3.822 4.482v5.699"></path>
<path fill="none" stroke="#fff" style="stroke: var(--color1, #fff)" stroke-linejoin="round" stroke-linecap="round" stroke-miterlimit="4" stroke-width="1.6" d="M25.716 21.196v-0.649h3c0.102-0 0.203-0.025 0.294-0.071s0.17-0.114 0.23-0.197c0.060-0.083 0.1-0.179 0.116-0.279s0.008-0.204-0.024-0.302c-2.479-7.681-4.264-15.941-12.707-17.175"></path>
<path fill="none" stroke="#fff" style="stroke: var(--color1, #fff)" stroke-linejoin="round" stroke-linecap="round" stroke-miterlimit="4" stroke-width="1.6" d="M19.223 30.936v-2.597h2.598c0.401 0 0.799-0.061 1.182-0.182"></path>
<path fill="none" stroke="#fff" style="stroke: var(--color1, #fff)" stroke-linejoin="round" stroke-linecap="round" stroke-miterlimit="4" stroke-width="1.6" d="M14.028 1.067h1.299c0.717 0 1.299 0.581 1.299 1.299v9.091c0 0.717-0.582 1.299-1.299 1.299h-1.299c-0.717 0-1.299-0.582-1.299-1.299v-9.091c0-0.717 0.582-1.299 1.299-1.299z"></path>
<path fill="none" stroke="#fff" style="stroke: var(--color1, #fff)" stroke-linejoin="round" stroke-linecap="round" stroke-miterlimit="4" stroke-width="1.6" d="M14.677 19.249c-1.076 0-1.948-0.872-1.948-1.948s0.872-1.948 1.948-1.948 1.948 0.872 1.948 1.948c0 1.076-0.872 1.948-1.948 1.948z"></path>
<path fill="none" stroke="#fff" style="stroke: var(--color1, #fff)" stroke-linejoin="round" stroke-linecap="round" stroke-miterlimit="4" stroke-width="1.6" d="M12.768 11.775c-1.307 0.451-2.411 1.351-3.117 2.54s-0.968 2.589-0.739 3.952c0.229 1.363 0.933 2.601 1.989 3.494s2.393 1.383 3.775 1.383 2.72-0.49 3.775-1.383c1.055-0.893 1.76-2.131 1.989-3.494s-0.033-2.763-0.739-3.952-1.81-2.088-3.116-2.54"></path>
<path fill="none" stroke="#fff" style="stroke: var(--color1, #fff)" stroke-linejoin="round" stroke-linecap="round" stroke-miterlimit="4" stroke-width="1.6" d="M26.041 23.795h0.649c0.897 0 1.623 0.727 1.623 1.623s-0.727 1.623-1.623 1.623h-0.649c-0.897 0-1.623-0.727-1.623-1.623s0.727-1.623 1.623-1.623z"></path>
<path fill="none" stroke="#fff" style="stroke: var(--color1, #fff)" stroke-linejoin="round" stroke-linecap="round" stroke-miterlimit="4" stroke-width="1.6" d="M15.268 19.157c2.238 3.579 6.009 6.261 9.15 6.261"></path>
</symbol>
<symbol id="icon-Vector" viewBox="0 0 32 32">
<path fill="none" stroke="#fff" style="stroke: var(--color1, #fff)" stroke-linejoin="round" stroke-linecap="round" stroke-miterlimit="4" stroke-width="1.6" d="M24.436 27.687c-1.205 0-2.361-0.479-3.214-1.331s-1.331-2.008-1.331-3.214c0-1.205 0.479-2.361 1.331-3.214s2.008-1.331 3.214-1.331M18.597 21.844h5.194M18.597 24.441h5.194M11.455 20.545h-9.090c-0.344 0-0.675-0.137-0.918-0.38s-0.38-0.574-0.38-0.918v-12.448c0-0.344 0.137-0.675 0.38-0.918l4.433-4.433c0.243-0.244 0.574-0.38 0.918-0.38h6.716c0.344 0 0.675 0.137 0.918 0.38l4.433 4.433c0.244 0.243 0.38 0.574 0.38 0.918v4.657M19.13 6.261h-17.946M10.156 1.067v5.194M30.933 23.142c0 4.303-3.488 7.791-7.791 7.791s-7.791-3.488-7.791-7.791c0-4.303 3.488-7.791 7.791-7.791s7.791 3.488 7.791 7.791z"></path>
</symbol>
</defs>
</svg>