<svg width="30" height="30" viewBox="0 0 30 30" fill="none" xmlns="http://www.w3.org/2000/svg">
<path d="M22.9084 25.9566C21.7783 25.9566 20.6945 25.5077 19.8955 24.7086C19.0964 23.9095 18.6475 22.8258 18.6475 21.6957C18.6475 20.5657 19.0964 19.4819 19.8955 18.6828C20.6945 17.8837 21.7783 17.4348 22.9084 17.4348M17.4348 20.4783H22.3044M17.4348 22.9131H22.3044M10.7392 19.2609H2.21739C1.89452 19.2609 1.58487 19.1327 1.35657 18.9044C1.12826 18.6761 1 18.3664 1 18.0435V6.37358C1.00007 6.05073 1.12838 5.74114 1.3567 5.51288L5.51288 1.3567C5.74114 1.12838 6.05073 1.00007 6.37358 1H12.6699C12.9928 1.00007 13.3024 1.12838 13.5306 1.3567L17.6868 5.51288C17.9152 5.74114 18.0435 6.05073 18.0435 6.37358V10.7392M17.9339 5.86953H1.10948M9.52172 1V5.86958M29 21.6956C29 25.7297 25.7297 29 21.6956 29C17.6615 29 14.3912 25.7297 14.3912 21.6956C14.3912 17.6615 17.6615 14.3912 21.6956 14.3912C25.7297 14.3912 29 17.6615 29 21.6956Z" stroke="white" stroke-width="1.5" stroke-linecap="round" stroke-linejoin="round"/>
</svg>
